HIERARCHY
ROOT hip
{
  OFFSET 0 0 0
  CHANNELS 6 Xposition Yposition Zposition Zrotation Yrotation Xrotation
  JOINT abdomen
  {
    OFFSET 0 20.6881 -0.73152
    CHANNELS 3 Zrotation Xrotation Yrotation
    JOINT chest
    {
      OFFSET 0 11.7043 -0.48768
      CHANNELS 3 Zrotation Xrotation Yrotation
      JOINT neck
      {
        OFFSET 0 22.1894 -2.19456
        CHANNELS 3 Zrotation Xrotation Yrotation
        JOINT head
        {
          OFFSET -0.24384 7.07133 1.2192
          CHANNELS 3 Zrotation Xrotation Yrotation
          JOINT leftEye
          {
            OFFSET 4.14528 8.04674 8.04672
            CHANNELS 3 Zrotation Xrotation Yrotation
            End Site
            {
              OFFSET 1 0 0
            }
          }
          JOINT rightEye
          {
            OFFSET -3.6576 8.04674 8.04672
            CHANNELS 3 Zrotation Xrotation Yrotation
            End Site
            {
              OFFSET 1 0 0
            }
          }
        }
      }
      JOINT rCollar
      {
        OFFSET -2.68224 19.2634 -4.8768
        CHANNELS 3 Zrotation Xrotation Yrotation
        JOINT rShldr
        {
          OFFSET -8.77824 -1.95073 1.46304
          CHANNELS 3 Zrotation Xrotation Yrotation
          JOINT rForeArm
          {
            OFFSET -28.1742 -1.7115 0.48768
            CHANNELS 3 Zrotation Xrotation Yrotation
            JOINT rHand
            {
              OFFSET -22.5879 0.773209 7.07136
              CHANNELS 3 Zrotation Xrotation Yrotation
              JOINT rThumb1
              {
                OFFSET -1.2192 -0.487915 3.41376
                CHANNELS 3 Zrotation Xrotation Yrotation
                JOINT rThumb2
                {
                  OFFSET -3.37035 -0.52449 3.41376
                  CHANNELS 3 Zrotation Xrotation Yrotation
                  End Site
                  {
                    OFFSET -1.78271 -1.18214 1.43049
                  }
                }
              }
              JOINT rIndex1
              {
                OFFSET -7.75947 0.938293 5.60832
                CHANNELS 3 Zrotation Xrotation Yrotation
                JOINT rIndex2
                {
                  OFFSET -2.54057 -0.884171 1.56538
                  CHANNELS 3 Zrotation Xrotation Yrotation
                  End Site
                  {
                    OFFSET -1.62519 -0.234802 1.16502
                  }
                }
              }
              JOINT rMid1
              {
                OFFSET -8.24714 1.18213 3.41376
                CHANNELS 3 Zrotation Xrotation Yrotation
                JOINT rMid2
                {
                  OFFSET -3.10165 -0.590103 1.0647
                  CHANNELS 3 Zrotation Xrotation Yrotation
                  End Site
                  {
                    OFFSET -2.48547 -0.328903 0.83742
                  }
                }
              }
              JOINT rRing1
              {
                OFFSET -8.82822 0.546677 1.51678
                CHANNELS 3 Zrotation Xrotation Yrotation
                JOINT rRing2
                {
                  OFFSET -2.60934 -0.819778 -0.0198488
                  CHANNELS 3 Zrotation Xrotation Yrotation
                  End Site
                  {
                    OFFSET -2.33842 -0.294052 0.168128
                  }
                }
              }
              JOINT rPinky1
              {
                OFFSET -8.27202 -0.0477905 -0.4584
                CHANNELS 3 Zrotation Xrotation Yrotation
                JOINT rPinky2
                {
                  OFFSET -1.82734 -0.647385 -0.700984
                  CHANNELS 3 Zrotation Xrotation Yrotation
                  End Site
                  {
                    OFFSET -1.69225 -0.51767 -0.607171
                  }
                }
              }
            }
          }
        }
      }
      JOINT lCollar
      {
        OFFSET 2.68224 19.2634 -4.8768
        CHANNELS 3 Zrotation Xrotation Yrotation
        JOINT lShldr
        {
          OFFSET 8.77824 -1.95073 1.46304
          CHANNELS 3 Zrotation Xrotation Yrotation
          JOINT lForeArm
          {
            OFFSET 28.1742 -1.7115 0.48768
            CHANNELS 3 Zrotation Xrotation Yrotation
            JOINT lHand
            {
              OFFSET 22.5879 0.773209 7.07136
              CHANNELS 3 Zrotation Xrotation Yrotation
              JOINT lThumb1
              {
                OFFSET 1.2192 -0.487915 3.41376
                CHANNELS 3 Zrotation Xrotation Yrotation
                JOINT lThumb2
                {
                  OFFSET 3.37035 -0.52449 3.41376
                  CHANNELS 3 Zrotation Xrotation Yrotation
                  End Site
                  {
                    OFFSET 1.78271 -1.18214 1.43049
                  }
                }
              }
              JOINT lIndex1
              {
                OFFSET 7.75947 0.938293 5.60832
                CHANNELS 3 Zrotation Xrotation Yrotation
                JOINT lIndex2
                {
                  OFFSET 2.54057 -0.884171 1.56538
                  CHANNELS 3 Zrotation Xrotation Yrotation
                  End Site
                  {
                    OFFSET 1.62519 -0.234802 1.16502
                  }
                }
              }
              JOINT lMid1
              {
                OFFSET 8.24714 1.18213 3.41376
                CHANNELS 3 Zrotation Xrotation Yrotation
                JOINT lMid2
                {
                  OFFSET 3.10165 -0.590103 1.0647
                  CHANNELS 3 Zrotation Xrotation Yrotation
                  End Site
                  {
                    OFFSET 2.48547 -0.328903 0.83742
                  }
                }
              }
              JOINT lRing1
              {
                OFFSET 8.82822 0.546677 1.51678
                CHANNELS 3 Zrotation Xrotation Yrotation
                JOINT lRing2
                {
                  OFFSET 2.60934 -0.819778 -0.0198488
                  CHANNELS 3 Zrotation Xrotation Yrotation
                  End Site
                  {
                    OFFSET 2.33842 -0.294052 0.168128
                  }
                }
              }
              JOINT lPinky1
              {
                OFFSET 8.27202 -0.0477905 -0.4584
                CHANNELS 3 Zrotation Xrotation Yrotation
                JOINT lPinky2
                {
                  OFFSET 1.82734 -0.647385 -0.700984
                  CHANNELS 3 Zrotation Xrotation Yrotation
                  End Site
                  {
                    OFFSET 1.69225 -0.51767 -0.607171
                  }
                }
              }
            }
          }
        }
      }
    }
  }
  JOINT rButtock
  {
    OFFSET -8.77824 4.35084 1.2192
    CHANNELS 3 Zrotation Xrotation Yrotation
    JOINT rThigh
    {
      OFFSET 0 -1.70687 -2.19456
      CHANNELS 3 Zrotation Xrotation Yrotation
      JOINT rShin
      {
        OFFSET 0 -36.8199 0.73152
        CHANNELS 3 Zrotation Xrotation Yrotation
        JOINT rFoot
        {
          OFFSET 0.73152 -45.1104 -5.12064
          CHANNELS 3 Zrotation Xrotation Yrotation
          End Site
          {
            OFFSET -1.1221 -3.69964 12.103
          }
        }
      }
    }
  }
  JOINT lButtock
  {
    OFFSET 8.77824 4.35084 1.2192
    CHANNELS 3 Zrotation Xrotation Yrotation
    JOINT lThigh
    {
      OFFSET 0 -1.70687 -2.19456
      CHANNELS 3 Zrotation Xrotation Yrotation
      JOINT lShin
      {
        OFFSET 0 -36.8199 0.73152
        CHANNELS 3 Zrotation Xrotation Yrotation
        JOINT lFoot
        {
          OFFSET -0.73152 -45.1104 -5.12064
          CHANNELS 3 Zrotation Xrotation Yrotation
          End Site
          {
            OFFSET 1.1221 -3.69964 12.103
          }
        }
      }
    }
  }
}
MOTION
Frames:	4
Frame Time:	0.03333
0.016969401389360428 11.862553596496582 0.028815891593694687 -5.547035560011864 -5.740681663155556 -5.348061919212341 4.113163165748119 14.977176189422607 8.38999941945076 6.808678284287453 -8.316520303487778 -1.0861380770802498 -7.466066926717758 5.466818064451218 0.6095346808433533 1.988251805305481 -18.20699170231819 -10.448504313826561 -12.991103678941727 -6.215795427560806 0.377655029296875 1.527479812502861 -2.5407814979553223 -1.4559469744563103 -0.0944499671459198 -1.8899770081043243 0.4737729951739311 16.966358721256256 22.598324418067932 12.012774646282196 -14.18328121304512 -21.828439235687256 27.858189940452576 -8.797463178634644 -0.25669947266578674 -0.9611169621348381 1.6316521167755127 5.387640260159969 -1.519082486629486 -1.9246093556284904 2.5319429486989975 1.668909676373005 -0.3328269347548485 -4.526184126734734 -0.5183771252632141 12.65061467885971 7.3740604519844055 0.24172335863113403 1.8116900324821472 3.989754058420658 0.7597652077674866 0.765170194208622 4.600221142172813 -4.900084733963013 -4.183751195669174 -0.3647167235612869 3.3211561292409897 8.787210434675217 -2.5977878272533417 -0.2516575902700424 -8.359117805957794 6.9972871989011765 -3.133598640561104 1.3716427981853485 -5.0190893188118935 6.157596856355667 4.0634433925151825 3.019150123000145 -5.674379467964172 -37.40848749876022 18.556372225284576 -11.611966788768768 14.99497264623642 -16.955924928188324 -38.02238881587982 -4.636478237807751 -0.34960247576236725 0.5775560438632965 3.077225312590599 -4.4256069883704185 -1.0201657935976982 0.4501863196492195 -5.626488626003265 1.0463294014334679 -6.653684824705124 -1.4513500034809113 2.406301572918892 -5.628878474235535 5.102761834859848 0.28315594419837 -11.576992124319077 -1.16241205483675 0.07736630737781525 -1.0050562396645546 5.702516511082649 5.360799394547939 1.6721992380917072 -5.293631851673126 7.190464586019516 -8.809405714273453 0.15631277114152908 -0.617982130497694 -6.716870963573456 0.3977005183696747 -2.1485795080661774 2.739354483783245 -0.10054998099803925 -0.4613419622182846 0.7495816983282566 -1.8811069428920746 1.8090574443340302 -15.305048078298569 -17.94644594192505 -30.952780544757843 1.9654855504631996 34.21230286359787 10.97332276403904 -4.662681743502617 -7.6406653225421906 2.949484772980213 -2.5797509774565697 -3.3612531423568726 -0.2805020660161972 22.399071156978607 -19.13417100906372 -1.3627593219280243 9.519901424646378 34.368640780448914 -11.060736626386642 1.7593370005488396 -1.7338526621460915 3.8803088665008545
0.011718287598341703 54.30418395996094 0.24140390381217003 -1.3814576715230942 -13.779138028621674 0.30134618282318115 -6.733223050832748 18.319771885871887 4.930138885974884 3.477369323372841 -15.270994752645493 3.04745614528656 -1.0022355616092682 13.394892811775208 6.685038506984711 0.8462577313184738 -42.52301752567291 -2.514626607298851 -5.232650488615036 -5.69252997636795 -2.9810111224651337 -0.38263119757175446 0.18379569053649902 -6.344009041786194 1.9034658372402191 -7.672847807407379 6.421426981687546 23.66359055042267 38.234524726867676 39.9375906586647 -29.273945689201355 -25.594327747821808 59.67554569244385 -5.507805570960045 2.026328779757023 -1.2146822735667229 -2.4557246267795563 3.3890069648623466 0.9577122330665588 -5.519133545458317 -2.6685646176338196 1.4225192740559578 -6.182926297187805 4.66535322368145 1.0296061635017395 42.29922741651535 11.362290680408478 1.3255108147859573 -4.506207704544067 2.405331116169691 2.6683359593153 4.75513581186533 6.930105239152908 -16.983385384082794 0.9086095355451107 -10.823269933462143 6.928373202681541 23.468245267868042 -6.308165341615677 -0.505065992474556 -1.0277281142771244 -4.289483204483986 -10.134402215480804 -0.538916140794754 1.8193018063902855 -1.3084117323160172 2.905612885951996 0.3260580450296402 -4.478439800441265 -53.32944452762604 42.5477609038353 -20.64558506011963 20.99891647696495 -26.96031242609024 -60.24360537528992 -6.987680196762085 -7.8233955055475235 0.36475829780101776 1.9827298074960709 -2.939475439488888 2.0866375789046288 -12.544733136892319 -6.141848936676979 -2.6070216670632362 -5.841697007417679 -2.6804937422275543 -0.6780537217855453 -13.523633480072021 4.974182099103928 -2.0973890461027622 -23.79302591085434 3.598746322095394 3.830656483769417 3.880568705499172 1.864996924996376 -1.76075991243124 10.871137976646423 -6.301203668117523 1.3910284638404846 -14.057657271623611 -1.3916738703846931 3.0506768077611923 -6.547130048274994 2.8887203335762024 7.2275494784116745 6.656690239906311 0.049648359417915344 -1.1562687903642654 -0.04071241244673729 3.0684350430965424 3.1135766208171844 -39.50595885515213 -37.805229127407074 -45.6448620557785 -14.89746630191803 49.39460098743439 14.334072321653366 -10.764202326536179 -7.355204522609711 3.01042053848505 -6.14267572760582 -3.458740711212158 -23.1774964928627 37.917240858078 -21.62585735321045 15.112631767988205 -2.5977489352226257 65.44549226760864 1.3788244128227234 -1.1995082627981901 6.3864268362522125 21.793715357780457
-0.00411216588690877 61.85942840576172 0.4755568914115429 -0.4037482291460037 -14.246293008327484 4.250780940055847 -8.759825080633163 18.328762650489807 1.6851246356964111 1.5517578274011612 -15.965091437101364 2.3960521817207336 2.2419150173664093 12.065643668174744 6.871130168437958 3.228043243288994 -42.92596310377121 -2.8918202966451645 -3.84215846657753 -5.325547121465206 -1.9388924539089203 -1.3644377142190933 -3.1392091512680054 -6.781927943229675 0.8623342216014862 -6.280365586280823 3.255540244281292 23.208033442497253 39.13752794265747 43.25209826231003 -35.04481226205826 -24.74784404039383 65.69086611270905 -5.129780396819115 2.317640483379364 -1.701175980269909 -0.4684115946292877 -1.1236434057354927 3.2107222080230713 -2.0326829329133034 0.3761798143386841 -1.9317279383540154 -6.342549920082092 4.985308572649956 -0.22118300199508667 47.041820883750916 9.911376535892487 3.938888981938362 -3.1641483306884766 0.1732315798290074 3.6301948875188828 6.3167014718055725 5.516642779111862 -17.381092607975006 1.9579433463513851 -15.248925536870956 3.383367285132408 25.267487168312073 -2.753133326768875 -5.351375117897987 -3.4944161027669907 -7.750130966305733 -7.24810391664505 0.6065131723880768 3.0268430337309837 -5.526692345738411 0.6723520997911692 -0.8919008821249008 -3.973567597568035 -54.7820645570755 44.42013591527939 -22.86553144454956 22.80860960483551 -28.76507967710495 -57.65649676322937 -3.249061368405819 -10.517797842621803 1.0271888226270676 1.2254349142313004 -3.510855697095394 2.134700082242489 -14.281957000494003 -2.9690581932663918 -2.772374488413334 -6.253770142793655 -1.7770721018314362 -0.7868387550115585 -12.829137146472931 2.2623829543590546 -1.876294557005167 -24.69092756509781 4.3620869144797325 4.179016426205635 5.211234055459499 0.6328330188989639 -2.4333935603499413 10.436319708824158 -3.6823618412017822 -3.4701910614967346 -9.84868124127388 -1.562088020145893 1.1344397999346256 -1.4304609596729279 4.344950616359711 8.274480029940605 5.620477460324764 -0.6044619530439377 -3.102603033185005 -4.744448885321617 3.5740314424037933 4.530440121889114 -43.66653710603714 -40.54669350385666 -43.12213718891144 -15.360007882118225 50.262799859046936 16.85425579547882 -13.744791001081467 -4.246746562421322 2.7410945668816566 -7.426992505788803 -6.879458427429199 -27.35255867242813 42.195138931274414 -18.101896047592163 16.84407815337181 -2.9566553235054016 62.34885513782501 2.0562095940113068 -0.028445078060030937 7.311316877603531 23.675424456596375
-0.03133362578228116 61.91947937011719 0.640669833868742 -1.2624198943376541 -12.31205552816391 -7.293993830680847 -8.46553310751915 19.73994791507721 2.7240917086601257 1.6939900070428848 -16.21265396475792 1.1250418424606323 2.2169329226017 14.09593641757965 6.7091140151023865 3.2453756779432297 -44.277064204216 -1.151023730635643 -3.301776498556137 -4.7121768817305565 -2.3041932284832 -2.2830191999673843 -2.9114198684692383 -6.003164649009705 0.941416472196579 -4.523773491382599 3.666529767215252 26.023204922676086 39.61528837680817 41.658715903759 -34.68332290649414 -25.485548079013824 66.44257664680481 -7.603603228926659 1.6903254389762878 -2.9304109141230583 -0.8457233011722565 -0.2039702609181404 4.801304340362549 -2.708403803408146 -0.16433358192443848 -0.6279007717967033 -5.818918347358704 5.012490078806877 0.5635884404182434 46.94924712181091 9.120591580867767 5.161976292729378 -2.723536491394043 -0.06344654888380319 3.7662848085165024 4.541471041738987 4.571797102689743 -15.858992636203766 1.1610161326825619 -17.2333525121212 2.42001436650753 24.0536829829216 -3.23715403676033 -3.600836768746376 -1.5095708705484867 -6.700644269585609 -5.582543313503265 0.7500810921192169 3.4264063462615013 -4.743047431111336 0.024375999346375465 -2.1727093309164047 -4.248520843684673 -55.46876907348633 42.9076811671257 -21.761083602905273 23.856950998306274 -27.04921156167984 -55.97481608390808 -4.170443080365658 -7.689295783638954 -1.3638637214899063 0.6419847160577774 -3.1235339865088463 2.7944081649184227 -14.094899743795395 -4.341040290892124 -1.4528456702828407 -5.552098900079727 -2.545841485261917 -0.09694240987300873 -12.15443953871727 4.055879563093185 -2.5845962204039097 -24.280549585819244 4.1275679692626 3.5500384122133255 4.562075100839138 0.26951171457767487 -2.6748379692435265 9.80203092098236 -3.2210057973861694 -2.3067614436149597 -10.183656960725784 -0.7213415578007698 1.6989723779261112 -2.2330342233181 3.1353870034217834 8.132837936282158 3.1899025663733482 0.9028858691453934 -3.8788986951112747 -2.778389509767294 3.0979500710964203 4.467896372079849 -47.629584074020386 -39.47522073984146 -45.751951932907104 -17.658832669258118 51.10497057437897 20.153228044509888 -12.923316210508347 -5.736279487609863 1.9027969613671303 -8.587251752614975 -6.752257347106934 -26.594716608524323 47.44991362094879 -18.344367742538452 22.560816407203674 2.168971002101898 66.73565089702606 -5.2728500962257385 -0.20452137105166912 6.253571659326553 22.970250248908997
